<svg viewBox="0 0 595 194" xmlns="http://www.w3.org/2000/svg"><path fill="#71adb5" d="M129.834 35.4c17.79 10.14 35.67 20.42 53.62 30.84.15.09.22.21.22.38v60.73c0 .23-.1.41-.31.53a25576.52 25576.52 0 0 1-53.49 30.72c-.14.08-.29.08-.43 0-18.25-10.46-36.01-20.69-53.27-30.67-.29-.17-.44-.42-.44-.75-.1-20.12-.1-40.25 0-60.38 0-.33.15-.58.43-.75 17.06-9.86 34.8-20.08 53.24-30.65.14-.08.29-.08.43 0zm37.99 33.47c-12.17-6.97-24.78-14.11-37.83-21.41a.715.715 0 0 0-.77 0c-12.33 7.06-24.79 14.16-37.37 21.31-.27.15-.27.31 0 .47 3.21 1.93 6.46 3.81 9.75 5.63.15.08.3.08.44-.01 8.87-5.2 17.89-10.35 27.05-15.47.45-.25.9-.24 1.35.01 8.65 4.99 17.57 10.08 26.74 15.27.45.26.9.25 1.34-.03 3.04-1.91 6.14-3.75 9.3-5.52.14-.09.14-.17 0-.25zm-60.54 34.8c5.58-3.11 11.2-6.31 16.86-9.6.19-.11.28-.28.28-.49V74.56c0-.32-.14-.4-.41-.24-5.85 3.24-11.42 6.43-16.72 9.54-.25.15-.37.36-.37.65v18.94c0 .28.12.35.36.22zm44.67-19.98c-5.42-3.06-10.92-6.18-16.49-9.36-.36-.2-.54-.1-.54.32v18.86c0 .33.14.57.43.73 5.56 3.1 11.04 6.24 16.45 9.43.41.24.62.12.62-.36V84.49c0-.35-.16-.62-.47-.8zm-27.93 48.05c-8.85-5.05-17.8-10.14-26.85-15.27-.5-.29-.75-.72-.75-1.29v-30.8c0-.26-.11-.45-.33-.59-3.63-2.18-6.77-4.02-9.42-5.49-.29-.17-.44-.08-.44.25-.07 13.72-.09 27.99-.06 42.8 0 .49.22.86.65 1.1 12.24 6.82 24.5 13.76 36.78 20.83.55.32.82.16.82-.47v-10.39c0-.3-.13-.53-.4-.68zm38.41-15.56c-9.26 5.34-18.27 10.55-27.02 15.62-.28.17-.43.42-.43.75.02 3.61-.06 7.15-.22 10.63-.02.33.12.42.41.26 12.56-6.94 25.06-14.03 37.51-21.26.28-.17.43-.42.43-.75.07-13.89.09-28.24.06-43.05 0-.28-.13-.35-.37-.21-3.43 2-6.58 3.86-9.46 5.57-.28.17-.42.42-.42.75.03 10.82.01 21.13-.06 30.94 0 .33-.15.58-.43.75zm-15.35-3.3c-5.37-3.1-10.97-6.27-16.83-9.49-.41-.23-.83-.23-1.25.01-5.27 3.01-10.58 6.02-15.92 9.03-.62.35-.62.7 0 1.06 5.04 2.84 10.25 5.83 15.63 8.97.63.37 1.27.37 1.9 0 5.47-3.15 10.96-6.25 16.46-9.29.18-.1.18-.19.01-.29z"/><path fill="#fff" d="M218.484 66.29c2.08-.06 4.83-.08 8.27-.04.74.01 1.34.3 1.8.88 9.68 12.22 19.4 24.43 29.16 36.64.29.37.45.32.46-.15V88.49c0-6.78.1-14.01.3-21.69.01-.33.18-.5.51-.52 3.88-.15 7.72-.11 11.5.12.34.02.51.2.51.53.21 19.38.27 39.47.17 60.25 0 .32-.16.49-.49.5-2.21.07-4.95.09-8.22.05-.67-.01-1.21-.27-1.63-.79-9.91-12.33-19.73-24.59-29.47-36.77-.41-.51-.62-.44-.62.22-.1 11.9-.1 24.24.01 37.01 0 .23-.11.34-.33.34h-12.19c-.2 0-.3-.1-.3-.3-.03-20.45-.01-40.67.06-60.64 0-.33.17-.5.5-.51zM282.234 66.29c3.13-.06 7.11-.08 11.94-.04.16 0 .25.08.25.25.03 20.87.01 41.1-.06 60.68 0 .33-.17.5-.5.51-3.79.1-7.68.09-11.67-.01-.33 0-.49-.17-.5-.5.12-9.7.17-18.7.17-27-.01-10.79-.05-21.92-.13-33.38 0-.33.17-.5.5-.51zM303.774 66.24c5.4-.03 10.09-.01 14.09.05.33.01.59.15.77.43 4.05 6.13 8.2 12.15 12.44 18.05.19.27.38.27.56-.01 3.89-6 7.97-12.1 12.22-18.3.1-.15.24-.22.42-.22h13.97c.55 0 .67.23.37.69-6.38 9.6-12.89 19.38-19.54 29.34-.18.27-.18.54 0 .81 6.49 9.74 13.22 19.72 20.18 29.93.33.49.2.73-.39.73h-13.53c-.45 0-.8-.19-1.06-.56-4.09-6.1-8.31-12.34-12.65-18.72-.19-.29-.39-.29-.59 0-4.12 6.03-8.39 12.39-12.82 19.07-.09.14-.22.21-.39.21-5.23.03-9.97.01-14.2-.06-.39-.01-.48-.17-.26-.5 6.69-9.99 13.32-19.94 19.9-29.86.26-.39.26-.78 0-1.16-6.69-10-13.26-19.82-19.73-29.47-.2-.29-.12-.44.24-.45zM372.494 66.24h15.93c4.11 0 7.61.5 10.5 1.5 5.42 1.87 9.1 5.35 11.04 10.44 1.14 2.97 1.48 6.04 1.01 9.19-.62 3.85-2.05 7.05-4.3 9.62-2.57 2.94-6.02 4.86-10.36 5.77-.44.09-.52.31-.25.66 5.53 7.25 11.23 14.67 17.09 22.27.33.42.23.67-.29.77-1.36.23-2.32-.02-2.88-.78-5.29-7.17-10.81-14.5-16.57-21.98a.905.905 0 0 0-.8-.38c-5.08.19-10.77.24-17.07.15-.58 0-.87.28-.87.86-.08 7.36-.08 14.33 0 20.91.01 1.06-.73 1.45-2.23 1.16-.18-.03-.27-.14-.27-.32V66.56c0-.21.11-.32.32-.32zm33.49 27.56c2.56-3.74 3.12-8.63 1.69-14.65a9.422 9.422 0 0 0-2.14-4.22c-3.08-3.63-6.95-5.61-11.61-5.94-5.16-.37-11.46-.44-18.9-.24-.23.01-.35.12-.35.36v31.22c0 .26.13.39.39.4 7.31.25 13.51.17 18.61-.24 5.42-.37 9.52-2.6 12.31-6.69zM421.674 66.24c1 .22 1.5.38 1.5.5v36c0 4.36.42 7.78 1.25 10.25 1.29 3.83 3.43 6.88 6.41 9.14.27.2.55.38.85.53 6.16 3.24 12.34 3.31 18.54.21 3.54-1.77 5.98-4.51 7.31-8.23 1.31-3.89 1.94-8.11 1.89-12.65-.12-11.82-.11-23.47.05-34.94.01-.33.15-.59.43-.77.51-.33 1.02-.33 1.54 0 .28.18.42.44.42.77l.06 38.19c.01 5.69-1.47 10.62-4.44 14.81-3.07 4.27-7.18 6.74-12.31 7.44-4.01.62-7.85.34-11.52-.85-.32-.1-.63-.22-.93-.36-5.63-2.49-9.21-6.61-10.74-12.35-1.07-4.05-1.51-8.53-1.31-13.44.3-11.09.3-22.17 0-33.25-.02-.86.31-1.19 1-1zM472.974 66.2c.68-.14 1.43.36 2.26 1.48 13.48 18.19 27.13 36.06 40.94 53.61.21.26.32.22.32-.11.16-17.52.22-35.67.18-54.46 0-.24.12-.38.35-.42 1.89-.3 2.59.11 2.1 1.23-.13.31-.19.63-.16.96.36 3.12.43 6.79.21 11-.06 3.92-.06 7.84 0 11.75.24 11.4.22 22.8-.06 34.19-.03 1.18-.59 1.51-1.68.98-.3-.15-.55-.36-.75-.63-13.78-17.97-27.61-36.09-41.49-54.37-.17-.23-.26-.2-.27.09-.15 17.89-.23 35.47-.25 52.74 0 .33.07.65.2.96.49 1.12-.21 1.53-2.1 1.23-.23-.04-.35-.18-.35-.41.07-10.69.07-21.36 0-32.03-.06-9.27-.05-18.33.05-27.19.01-.33.17-.53.5-.6z"/></svg>